<svg width="16" height="9" viewBox="0 0 16 9" fill="none" xmlns="http://www.w3.org/2000/svg">
<symbol id="expandSVG">
<path d="M1.11057 0.201779L8.00071 7.37468L14.8908 0.201779C15.0139 0.0733642 15.1792 0.00147216 15.3513 0.00147216C15.5234 0.00147216 15.6886 0.0733642 15.8117 0.201779C15.8713 0.264151 15.9187 0.338597 15.951 0.420759C15.9833 0.502921 16 0.591146 16 0.680267C16 0.769388 15.9833 0.857613 15.951 0.939775C15.9187 1.02194 15.8713 1.09638 15.8117 1.15875L8.48183 8.79101C8.35311 8.92501 8.18046 9 8.00071 9C7.82095 9 7.6483 8.92501 7.51958 8.79101L0.189678 1.16023C0.12965 1.09781 0.0819397 1.02318 0.0493612 0.940745C0.0167837 0.858311 9.53674e-07 0.769743 9.53674e-07 0.680267C9.53674e-07 0.590792 0.0167837 0.502222 0.0493612 0.419788C0.0819397 0.337354 0.12965 0.262725 0.189678 0.200306C0.312782 0.0718913 0.478041 0 0.650125 0C0.822208 0 0.987465 0.0718913 1.11057 0.200306V0.201779Z"/>
</symbol>
</svg>
