<svg width="27" height="28" viewBox="0 0 27 28" fill="none" xmlns="http://www.w3.org/2000/svg">
<symbol id="filterSVG">
<path d="M1.64714 23.6078H18.1177M26.353 4.39209H20.8628H26.353ZM1.64714 4.39209H15.3726H1.64714ZM26.353 13.9999H9.88244H26.353ZM1.64714 13.9999H4.39224H1.64714ZM26.353 23.6078H23.6079H26.353Z" stroke-width="2" stroke-linecap="round"/>
<path d="M18.1177 7.13717C16.6016 7.13717 15.3726 5.90815 15.3726 4.39207C15.3726 2.87599 16.6016 1.64697 18.1177 1.64697C19.6338 1.64697 20.8628 2.87599 20.8628 4.39207C20.8628 5.90815 19.6338 7.13717 18.1177 7.13717Z" stroke-width="2" stroke-linecap="round"/>
<path d="M7.13747 16.7451C5.62139 16.7451 4.39237 15.5161 4.39237 14C4.39237 12.4839 5.62139 11.2549 7.13747 11.2549C8.65355 11.2549 9.88257 12.4839 9.88257 14C9.88257 15.5161 8.65355 16.7451 7.13747 16.7451Z" stroke-width="2" stroke-linecap="round"/>
<path d="M20.8626 26.353C19.3465 26.353 18.1175 25.124 18.1175 23.6079C18.1175 22.0918 19.3465 20.8628 20.8626 20.8628C22.3786 20.8628 23.6077 22.0918 23.6077 23.6079C23.6077 25.124 22.3786 26.353 20.8626 26.353Z" stroke-width="2" stroke-linecap="round"/>
</symbol>
</svg>
