<svg width="18" height="16" viewBox="0 0 18 16" fill="none" xmlns="http://www.w3.org/2000/svg">
<symbol id="likeSVG">
<path d="M9 15.6203C9.5805 15.1358 10.2366 14.6318 10.9305 14.0956H10.9395C13.383 12.2152 16.1523 10.0875 17.3754 7.53792C17.7768 6.72647 17.9901 5.84386 18 4.94771C18.0013 4.33953 17.8735 3.73722 17.6241 3.17617C17.3747 2.61511 17.0087 2.10661 16.5476 1.68052C16.0864 1.25443 15.5395 0.919351 14.9389 0.694947C14.3383 0.470542 13.6961 0.361341 13.05 0.373754C11.9874 0.375333 10.9477 0.664353 10.0548 1.20638C9.66243 1.44607 9.30742 1.73599 9 2.06781C8.6904 1.73747 8.3358 1.44779 7.9443 1.20638C7.05174 0.664246 6.01231 0.37521 4.95 0.373754C4.30392 0.361341 3.66172 0.470542 3.0611 0.694947C2.46048 0.919351 1.91355 1.25443 1.45244 1.68052C0.99132 2.10661 0.625305 2.61511 0.375889 3.17617C0.126471 3.73722 -0.0013237 4.33953 9.53674e-06 4.94771C0.00918388 5.84455 0.222151 6.72917 0.624609 7.54215C1.84771 10.0917 4.61611 12.2186 7.0596 14.0956L7.0686 14.1024C7.7634 14.6352 8.4186 15.1392 8.9991 15.627L9 15.6203ZM13.05 2.06781C13.8883 2.05794 14.6969 2.3599 15.3 2.90806C15.5876 3.17393 15.8155 3.49149 15.9701 3.84187C16.1247 4.19226 16.2029 4.56832 16.2 4.94771C16.1901 5.59992 16.0326 6.24366 15.7392 6.83489C15.1618 7.93492 14.3828 8.93047 13.4379 9.77577C12.546 10.6228 11.52 11.4427 10.6326 12.1322C10.3869 12.3228 10.1367 12.5151 9.8865 12.7073L9.729 12.8285C9.4887 13.0131 9.2403 13.2045 9 13.3926L8.9883 13.3824L8.9829 13.3782H8.9775L8.9694 13.3723H8.9604L8.9442 13.3595L8.9073 13.3316L8.901 13.3265L8.8911 13.3197H8.8857L8.8776 13.313L8.28 12.8513L8.1234 12.7302C7.8705 12.5362 7.6203 12.344 7.3746 12.1534C6.4872 11.4639 5.4603 10.6448 4.56841 9.79356C3.62335 8.94872 2.84428 7.95342 2.26711 6.85352C1.96831 6.25721 1.80811 5.60669 1.79911 4.94771C1.79737 4.5694 1.87619 4.19461 2.03093 3.84545C2.18566 3.4963 2.41317 3.17987 2.70001 2.91484C3.30191 2.3642 4.11065 2.05975 4.95 2.06781C5.4564 2.06376 5.95798 2.16061 6.42177 2.352C6.88557 2.54339 7.30108 2.82498 7.641 3.17826L9 4.65209L10.359 3.17826C10.6989 2.82498 11.1144 2.54339 11.5782 2.352C12.042 2.16061 12.5436 2.06376 13.05 2.06781Z"/>
</symbol>
</svg>
