<svg width="14" height="17" viewBox="0 0 14 17" fill="none" xmlns="http://www.w3.org/2000/svg">
<path d="M3.75782 8.39375L5.50535 3.95958L6.97888 6.55208L8.45242 3.95958L10.1999 8.39517H10.705V9.06171H8.07347V8.39517H8.46298L8.08403 7.29371L6.97888 9.11412L5.87373 7.29371L5.49478 8.39517H5.8843V9.06171H3.24222V8.39517L3.75782 8.39375ZM2.57492e-05 7.03942C-0.000436783 6.11486 0.180306 5.19927 0.531925 4.345C0.883544 3.49073 1.39914 2.71452 2.04924 2.06076C2.69934 1.407 3.4712 0.888495 4.32069 0.534896C5.17017 0.181298 6.08063 -0.000464624 7.00001 8.9192e-07C10.8628 8.9192e-07 14 3.15421 14 7.03942C14 8.98733 13.2104 10.744 11.9475 12.014C11.8684 12.0943 11.7674 12.149 11.6572 12.1714C11.5471 12.1937 11.4329 12.1826 11.3291 12.1395C11.2252 12.0963 11.1365 12.0231 11.0742 11.9292C11.0118 11.8352 10.9787 11.7247 10.979 11.6117C10.9787 11.4573 11.0393 11.3091 11.1473 11.1995C12.2414 10.0948 12.8545 8.59849 12.8519 7.03942C12.8519 3.78958 10.2316 1.14325 7.00001 1.14325C3.76838 1.14325 1.13687 3.78958 1.13687 7.03942C1.13515 7.81405 1.28587 8.58138 1.58035 9.29718C1.87483 10.013 2.30726 10.6631 2.85271 11.2101L7.80017 16.1847L7.00001 17L2.04198 12.014C1.39236 11.3611 0.877516 10.5855 0.527078 9.73176C0.17664 8.87802 -0.00247955 7.96303 2.57492e-05 7.03942Z" fill="#6CD07B"/>
</svg>
