<svg width="93" height="94" viewBox="0 0 93 94" fill="none" xmlns="http://www.w3.org/2000/svg">
<path fill-rule="evenodd" clip-rule="evenodd" d="M33.189 43.9582H43.6458V5.47866H33.189V43.9582ZM27.4761 49.4434H49.3552V0H27.4761V49.4434Z" fill="#A5A5A5"/>
<path fill-rule="evenodd" clip-rule="evenodd" d="M0 60.2906H92.9986V54.8279H0V60.2906Z" fill="#A5A5A5"/>
<path fill-rule="evenodd" clip-rule="evenodd" d="M5.69196 81.6366H32.5731V71.2081H5.69196V81.6366ZM0 93.2821H5.69196V87.0928H38.2665V65.7468H0V93.2821Z" fill="#A5A5A5"/>
<path fill-rule="evenodd" clip-rule="evenodd" d="M71.1204 5.47866V49.4426H76.8297V16.4461L87.2844 5.483V49.4426H92.9995V0H84.9746L76.8297 8.51608V0H68.8085L54.9478 14.3714V49.4426H60.6643V16.4483L71.1204 5.47866Z" fill="#A5A5A5"/>
<path fill-rule="evenodd" clip-rule="evenodd" d="M49.5288 81.6366H65.3891V71.2081H49.5288V81.6366ZM71.3276 81.6366H87.3087V71.2081H71.3276V81.6366ZM43.834 87.0928H65.3898V93.2821H71.3276V87.0928H92.9999V65.7468H43.834V87.0928Z" fill="#A5A5A5"/>
<path fill-rule="evenodd" clip-rule="evenodd" d="M5.71608 16.4483L16.1686 5.483V43.9589H5.71608V16.4483ZM16.1686 49.4426H21.8822V0H13.8603L0.000976562 14.3714V49.4426H16.1686Z" fill="#A5A5A5"/>
</svg>
