<svg width="230" height="28" viewBox="0 0 230 28" fill="none" xmlns="http://www.w3.org/2000/svg">
<path fill-rule="evenodd" clip-rule="evenodd" d="M197.658 21.0227C196.061 21.0227 194.602 22.4725 194.602 24.4661C194.602 26.5955 196.016 27.9547 197.612 27.9094C199.483 27.9094 200.714 26.5955 200.714 24.4661C200.714 22.3366 199.346 21.0227 197.658 21.0227Z" fill="white"/>
<path fill-rule="evenodd" clip-rule="evenodd" d="M2.82844 0.226562C1.41432 0.226562 0.091435 1.35925 0.182669 3.08093C0.091435 4.75731 1.27747 5.88999 2.73721 5.88999C4.37942 5.88999 5.61107 4.712 5.51984 3.03562C5.51984 1.26863 4.3338 0.226562 2.82844 0.226562Z" fill="white"/>
<path d="M5.51986 8.20068H0.273926V27.5923H5.51986V8.20068Z" fill="white"/>
<path fill-rule="evenodd" clip-rule="evenodd" d="M18.6116 7.88354C16.5588 7.88354 14.871 8.92562 13.913 10.4661H13.8674L13.5937 8.246H9.07764C9.12325 10.1036 9.21449 11.9612 9.21449 14.0454V27.6376H14.4604V15.7217C14.4604 14.9968 14.5973 14.3172 14.7341 13.9547C15.0534 12.8221 15.7833 12.2331 16.65 12.2331C18.1554 12.2331 18.5659 13.8188 18.5659 15.4499V27.5923H23.8119V15.1327C23.8119 10.8285 22.3521 7.88354 18.6116 7.88354Z" fill="white"/>
<path fill-rule="evenodd" clip-rule="evenodd" d="M34.1669 16.8997C33.8932 18.6667 33.7107 20.3431 33.437 22.2913H33.3914C33.0721 20.2978 32.7984 18.5761 32.5247 16.8997L31.0194 8.20068H25.4541L30.8369 27.5923H35.6267L40.8726 8.20068H35.6723L34.1669 16.8997Z" fill="white"/>
<path fill-rule="evenodd" clip-rule="evenodd" d="M49.4486 7.88354C45.0694 7.88354 41.6025 11.78 41.6025 18.3043C41.6025 24.3755 44.522 27.8641 49.9048 27.8641C51.8207 27.8641 53.8735 27.547 55.1964 27.0033L54.5121 23.2428C53.5998 23.5599 52.2313 23.9224 50.7715 23.9224C48.5363 23.9224 46.7572 22.835 46.666 19.8447V19.7994C46.666 19.8447 46.666 19.8447 46.666 19.8447H55.8806C55.9262 19.2557 56.0175 18.5308 56.0175 17.1263C56.0631 11.191 53.5998 7.88354 49.4486 7.88354ZM46.7116 16.0389C46.7572 14.136 47.4871 11.5988 49.1749 11.5988C50.6803 11.5988 51.3645 13.5017 51.3645 16.0389H46.7116Z" fill="white"/>
<path fill-rule="evenodd" clip-rule="evenodd" d="M65.4602 15.903C63.6812 14.7703 63.225 14.3172 63.225 13.4564C63.225 12.5955 63.818 11.8253 65.1409 11.8253C66.1901 11.8253 67.1481 12.1424 67.8779 12.5955L68.7903 8.78969C67.7411 8.246 66.4638 7.88354 64.8216 7.88354C60.8986 7.88354 58.3896 10.5114 58.3896 14.0001C58.3896 15.767 59.1651 17.8059 62.3583 19.6182C64.0917 20.6149 64.5935 21.2492 64.5935 22.246C64.5935 23.3787 63.818 23.9677 62.4495 23.9677C61.1266 23.9677 59.6669 23.3787 58.937 22.9256L58.0703 26.8221C58.937 27.5017 60.8529 27.9547 62.5408 27.9547C66.6006 27.9547 69.4289 25.78 69.4289 21.8382C69.4289 19.5729 68.2885 17.5793 65.4602 15.903Z" fill="white"/>
<path fill-rule="evenodd" clip-rule="evenodd" d="M78.1871 3.12622L72.9412 4.75729V8.20066H70.6147V11.9159H72.9412V20.932C72.9412 23.9676 73.5342 25.4175 74.5834 26.4596C75.4957 27.3657 76.8186 27.7282 78.3696 27.7282C79.6925 27.7282 80.8329 27.5922 81.5628 27.411L81.5172 23.3786C81.061 23.424 80.6504 23.5146 80.103 23.5146C79.0995 23.5146 78.1871 22.9256 78.1871 20.6602V11.8253H82.0189V8.15535H78.1871V3.12622Z" fill="white"/>
<path fill-rule="evenodd" clip-rule="evenodd" d="M208.606 11.0551H208.469L208.195 8.2007H203.679C203.725 9.96769 203.816 12.0971 203.816 14H203.77V27.5923H209.016V17.7153C209.016 16.945 209.153 16.2654 209.29 15.8123C209.883 13.7735 211.343 13.0486 212.483 13.0486C212.939 13.0486 213.259 13.0486 213.624 13.0939V8.01947C213.35 7.97416 213.031 7.88354 212.483 7.88354C211.069 7.88354 209.473 9.01623 208.606 11.0551Z" fill="white"/>
<path fill-rule="evenodd" clip-rule="evenodd" d="M229.863 21.657H229.909V8.20068H224.663V20.6149C224.663 21.2945 224.526 21.8835 224.344 22.246C224.07 22.9256 223.568 23.5599 222.61 23.5599C221.196 23.5599 220.694 21.9741 220.694 19.3916V8.20068H215.448V19.9353C215.448 25.1457 216.908 27.9094 220.649 27.9094C222.701 27.9094 224.298 26.8674 225.21 25.5534H225.256L225.53 27.5923H230C229.954 25.7347 229.863 23.6958 229.863 21.657Z" fill="white"/>
<path fill-rule="evenodd" clip-rule="evenodd" d="M102.82 7.88354C101.817 7.88354 100.905 8.15539 100.083 8.60846C99.3536 9.06154 98.5781 9.78646 98.0763 10.5114H98.0307C97.3464 8.88031 95.9779 7.88354 93.7883 7.88354C91.7812 7.88354 90.139 9.01623 89.1354 10.4661H89.0898L88.8161 8.246H84.2544C84.3 10.1036 84.3912 11.9612 84.3912 14.0454H84.5281V27.6376H89.774V15.314C89.774 14.7703 89.8196 14.1813 89.9565 13.8641C90.2758 12.6861 91.0969 12.1424 91.8724 12.1424C93.469 12.1424 93.6058 13.9094 93.6058 15.3593V27.547H98.8518V15.2687C98.8518 14.725 98.8518 14.2266 98.9886 13.8641C99.2623 12.8221 99.9922 12.1424 100.905 12.1424C102.41 12.1424 102.684 13.9094 102.684 16.0842V27.547H107.884V15.2687C107.884 10.6473 106.333 7.88354 102.82 7.88354Z" fill="#CA1427"/>
<path fill-rule="evenodd" clip-rule="evenodd" d="M118.421 7.88351C114.498 7.88351 110.849 10.9644 110.849 17.9871C110.849 24.3301 113.722 27.9547 118.375 27.9547C121.386 27.9547 125.902 25.9612 125.902 17.8511C125.857 11.6893 123.074 7.79289 118.421 7.88351ZM118.512 23.9676C116.642 23.9676 116.14 21.2039 116.14 17.8511C116.14 15.1327 116.551 11.7799 118.375 11.8706C120.154 11.8706 120.656 15.2233 120.656 17.8511C120.611 20.7508 120.246 23.9676 118.512 23.9676Z" fill="#CA1427"/>
<path fill-rule="evenodd" clip-rule="evenodd" d="M135.163 15.903C133.384 14.7703 132.927 14.3172 132.927 13.4564C132.927 12.5955 133.52 11.8253 134.843 11.8253C135.893 11.8253 136.85 12.1424 137.58 12.5955L138.493 8.78969C137.443 8.246 136.166 7.88354 134.524 7.88354C130.601 7.88354 128.092 10.5114 128.092 14.0001C128.092 15.767 128.868 17.8059 132.061 19.6182C133.794 20.6149 134.342 21.2492 134.342 22.246C134.342 23.3787 133.566 23.9677 132.198 23.9677C130.875 23.9677 129.415 23.3787 128.685 22.9256L127.818 26.8221C128.685 27.5017 130.601 27.9547 132.289 27.9547C136.349 27.9547 139.177 25.78 139.177 21.8382C139.177 19.5729 138.037 17.5793 135.163 15.903Z" fill="#CA1427"/>
<path fill-rule="evenodd" clip-rule="evenodd" d="M150.399 12.233C151.266 12.233 151.859 12.4143 152.315 12.5502L152.999 8.47252C152.543 8.20068 151.402 7.92883 150.125 7.92883C144.742 7.92883 141.139 12.0971 141.139 18.0777C141.139 24.3301 144.332 27.7735 149.304 27.7735C150.764 27.7735 152.087 27.5016 152.634 27.2298L152.224 23.1521C151.676 23.424 151.038 23.5599 150.308 23.5599C147.844 23.5599 146.385 21.4304 146.385 17.9418C146.385 14.589 147.844 12.233 150.399 12.233Z" fill="#CA1427"/>
<path fill-rule="evenodd" clip-rule="evenodd" d="M161.529 7.88351C157.606 7.88351 153.957 10.9644 153.957 17.9871C153.957 24.3301 156.83 27.9547 161.483 27.9547C164.494 27.9547 169.01 25.9612 169.01 17.8511C168.964 11.6893 166.182 7.79289 161.529 7.88351ZM161.62 23.9676C159.75 23.9676 159.248 21.2039 159.248 17.8511C159.248 15.1327 159.659 11.7799 161.483 11.8706C163.262 11.8706 163.719 15.2233 163.719 17.8511C163.719 20.7508 163.308 23.9676 161.62 23.9676Z" fill="#CA1427"/>
<path fill-rule="evenodd" clip-rule="evenodd" d="M188.899 8.20068L187.713 16.4466C187.439 18.5761 187.166 20.6149 187.029 22.4272H186.983C186.71 20.5696 186.39 18.6667 185.934 16.4466L184.292 8.20068H180.186L178.453 16.6279C178.042 18.4855 177.677 20.5696 177.404 22.4272H177.267C177.13 20.5243 176.856 18.6214 176.583 16.4919L175.533 8.20068H169.877L174.667 27.5923H179.183L180.916 20.8868C181.327 19.0292 181.783 16.9903 182.057 14.7703H182.102C182.376 17.0356 182.695 19.0745 183.106 20.8415L184.566 27.6376H189.036L194.099 8.24599H188.899V8.20068Z" fill="#CA1427"/>
</svg>
