<svg width="226" height="111" viewBox="0 0 226 111" fill="none" xmlns="http://www.w3.org/2000/svg">
<path d="M147.225 57.5135C144.57 46.1778 136.453 37.0198 125.861 32.6944V26.1614V25.8631H117.774L115.268 23.3574L112.91 21.0007L108.256 25.7736H99.2442V26.072V29.3533V32.6049C88.6813 36.9303 80.6247 46.1182 77.8796 57.3942H1.37256V61.5705V65.7468H7.34034V61.5705H12.1146V65.7468H18.0824V61.5705H23.155V65.7468H29.1228V61.5705H33.897V65.7468H39.8648V61.5705H44.639V65.7468H50.6068V61.5705H55.6794V65.7468H61.6472V61.5705H66.4214V65.7468H72.3892V61.5705H77.1336C76.9546 63.0024 76.8651 64.4342 76.8651 65.8959H80.4457C80.4457 63.6885 80.6546 61.5108 81.1022 59.4227L84.8917 60.3176C85.4288 58.0803 86.1748 55.9027 87.1595 53.8742L83.5191 52.144C84.3248 50.4436 85.2498 48.8328 86.324 47.3114L89.6361 49.5785C90.9192 47.6992 92.3813 45.9989 94.0224 44.4178L91.3966 41.6436C92.8587 40.3609 94.4402 39.1975 96.1112 38.1832L98.1104 41.1365C99.662 40.0924 101.124 39.3764 102.855 38.6008V29.3533H109.419L112.97 25.714L116.64 29.4428H122.28V38.6903C124.011 39.4659 125.443 40.1819 126.994 41.2259L129.023 38.2727C130.694 39.287 132.276 40.4503 133.738 41.7032L131.053 44.5073C132.694 46.0585 134.156 47.7887 135.439 49.668L138.811 47.3711C139.885 48.8924 140.84 50.5033 141.616 52.2335L137.915 53.9935C138.9 56.022 139.646 58.1996 140.183 60.4369L144.003 59.542C144.391 61.5407 144.599 63.599 144.599 65.7169H148.18C148.18 64.3447 148.091 63.0024 147.941 61.6898H152.626V65.5678H158.594V61.6898H163.368V65.5678H169.306V61.6898H174.379V65.5678H180.346V61.6898H185.121V65.5678H191.088V61.6898H195.863V65.5678H201.83V61.6898H206.903V65.5678H212.841V61.6898H217.615V65.5678H223.494V61.6898V61.3915V57.5135H147.225Z" fill="white"/>
<path d="M112.97 46.0586C102.079 46.0586 93.2764 54.8587 93.2764 65.7469H95.3651H96.2603H129.68H130.575H132.664C132.664 54.8587 123.861 46.0586 112.97 46.0586ZM96.5288 62.7638C97.9312 54.978 104.764 49.0715 112.97 49.0417C121.176 49.0715 127.979 54.978 129.411 62.7638H96.5288Z" fill="white"/>
<path d="M19.2461 37.6762L28.8244 47.5502H70.1512L70.2408 47.6098C70.2408 47.6098 70.2706 47.58 70.2706 47.5502H70.3303V47.4607C75.5222 37.3182 85.578 26.1914 97.4837 22.1046V15.0645C100.11 15.0645 105.839 15.0347 111.806 15.0347C118.192 15.0347 124.548 15.0347 127.352 15.0347V21.8063H127.412L127.352 22.0151C139.228 26.1317 149.344 37.2586 154.536 47.4308V47.5203H154.595L154.625 47.5502L154.715 47.5203H196.012L205.62 37.6762L215.676 47.5203H223.434V44.239H217.018L207.917 35.3196L205.56 32.9331L194.55 44.2091H182.525L175.96 37.6464L169.395 44.2091H156.147C150.776 34.6036 141.586 24.6402 130.306 19.9568V12.0516H128.815C128.815 12.0516 120.34 12.1113 111.777 12.1113C103.66 12.1113 95.9917 12.1113 95.9619 12.1113H94.47V20.0463C83.1908 24.7297 74.0005 34.6931 68.6295 44.2986H55.381L48.8164 37.7359L42.2519 44.2986H30.2268L19.2759 33.0226L16.9783 35.3494L7.81776 44.2986H1.37256V47.58H9.13068L19.2461 37.6762Z" fill="white"/>
<path d="M128.516 4.89221H96.2606L94.4702 9.96343H130.307L128.516 4.89221Z" fill="white"/>
<path d="M0 90.7747C0 88.7164 0.298389 86.8073 0.865329 85.0473C1.46211 83.2873 2.2976 81.7659 3.46132 80.4832C4.59519 79.2004 5.99762 78.1862 7.6686 77.4703C9.33958 76.7543 11.2493 76.3964 13.4275 76.3964C15.6058 76.3964 17.5154 76.7543 19.1864 77.4703C20.8574 78.1862 22.2598 79.1706 23.3639 80.4832C24.4978 81.7659 25.3332 83.2873 25.93 85.0473C26.5268 86.8073 26.7954 88.7164 26.7954 90.7747C26.7954 92.8331 26.497 94.7422 25.93 96.5022C25.3332 98.2623 24.4978 99.7836 23.3639 101.066C22.23 102.349 20.8276 103.363 19.1864 104.079C17.5154 104.795 15.6058 105.153 13.4275 105.153C11.2493 105.153 9.33958 104.795 7.6686 104.079C5.99762 103.363 4.59519 102.379 3.46132 101.066C2.32744 99.7836 1.46211 98.2623 0.865329 96.5022C0.298389 94.7721 0 92.8331 0 90.7747ZM6.7436 90.7747C6.7436 92.4751 6.86295 94.0263 7.1315 95.488C7.40005 96.9199 7.8178 98.1728 8.38474 99.2168C8.95168 100.261 9.66781 101.096 10.563 101.693C11.4581 102.289 12.5025 102.588 13.7557 102.588C14.8896 102.588 15.8743 102.289 16.6501 101.693C17.4558 101.096 18.0824 100.291 18.5896 99.2168C19.0969 98.1728 19.455 96.9199 19.6937 95.488C19.9324 94.0561 20.0219 92.4751 20.0219 90.7747C20.0219 89.0744 19.9026 87.5232 19.634 86.0615C19.3953 84.6296 18.9776 83.3767 18.4405 82.3327C17.9034 81.2886 17.1872 80.4533 16.2921 79.8567C15.3969 79.2601 14.3227 78.9618 13.0396 78.9618C11.8162 78.9618 10.8017 79.2601 9.9662 79.8567C9.13071 80.4533 8.50409 81.2588 7.99683 82.3327C7.51941 83.3767 7.16134 84.6296 6.95247 86.0615C6.86295 87.5232 6.7436 89.0744 6.7436 90.7747ZM50.2786 96.3531H51.9197C52.0391 96.7707 52.1286 97.2778 52.2181 97.8745C52.3076 98.4711 52.3971 99.0975 52.4568 99.7836C52.5165 100.47 52.5762 101.126 52.606 101.782C52.6359 102.439 52.6359 103.035 52.6359 103.572C51.7108 104.169 50.5471 104.557 49.1745 104.795C47.7721 105.034 46.3697 105.153 44.9076 105.153C42.6995 105.153 40.7301 104.885 38.9398 104.348C37.1495 103.811 35.6277 102.946 34.3744 101.752C33.1212 100.589 32.1365 99.0677 31.4502 97.2778C30.7639 95.4582 30.4059 93.2805 30.4059 90.7449C30.4059 88.2391 30.7938 86.0615 31.5397 84.2418C32.2857 82.4222 33.3002 80.9306 34.5833 79.7672C35.8664 78.6038 37.3285 77.7387 38.9995 77.2018C40.6705 76.6648 42.4608 76.3964 44.3108 76.3964C46.0713 76.3964 47.6528 76.5157 49.0552 76.7842C50.4576 77.0228 51.6213 77.3808 52.5165 77.7984C52.5165 78.216 52.4867 78.753 52.4568 79.4391C52.427 80.0954 52.3375 80.7815 52.248 81.5272C52.1584 82.2432 52.0391 82.9591 51.9197 83.675C51.8004 84.391 51.681 84.9578 51.5915 85.4351H49.9205L47.7423 79.4391C47.5036 79.3198 47.1157 79.2004 46.5786 79.111C46.0415 79.0215 45.5044 78.9916 44.9374 78.9916C43.8632 78.9916 42.8189 79.2004 41.864 79.6479C40.9092 80.0954 40.0737 80.7815 39.3277 81.7361C38.5817 82.6906 38.0148 83.9137 37.5672 85.4052C37.1495 86.8968 36.9406 88.6866 36.9406 90.7747C36.9406 94.5632 37.6866 97.4867 39.2083 99.5151C40.7301 101.544 42.7592 102.588 45.3552 102.588C46.1011 102.588 46.7278 102.528 47.235 102.409C47.7423 102.289 48.1003 102.11 48.2794 101.902L50.2786 96.3531ZM55.6794 90.7747C55.6794 88.7164 55.9778 86.8073 56.5448 85.0473C57.1415 83.2873 57.977 81.7659 59.1407 80.4832C60.2746 79.2004 61.6771 78.1862 63.348 77.4703C65.019 76.7543 66.9287 76.3964 69.1069 76.3964C71.2852 76.3964 73.1949 76.7543 74.8659 77.4703C76.5368 78.1862 77.9393 79.1706 79.0433 80.4832C80.1772 81.7659 81.0127 83.2873 81.6095 85.0473C82.2062 86.8073 82.4748 88.7164 82.4748 90.7747C82.4748 92.8331 82.1764 94.7422 81.6095 96.5022C81.0127 98.2623 80.1772 99.7836 79.0433 101.066C77.9094 102.349 76.507 103.363 74.8659 104.079C73.1949 104.795 71.2852 105.153 69.1069 105.153C66.9287 105.153 65.019 104.795 63.348 104.079C61.6771 103.363 60.2746 102.379 59.1407 101.066C58.0069 99.7836 57.1415 98.2623 56.5448 96.5022C55.9778 94.7721 55.6794 92.8331 55.6794 90.7747ZM62.423 90.7747C62.423 92.4751 62.5424 94.0263 62.8109 95.488C63.0795 96.9199 63.4972 98.1728 64.0642 99.2168C64.6311 100.261 65.3472 101.096 66.2424 101.693C67.1376 102.289 68.1819 102.588 69.4352 102.588C70.5691 102.588 71.5537 102.289 72.3295 101.693C73.1054 101.096 73.7618 100.291 74.2691 99.2168C74.7763 98.1728 75.1344 96.9199 75.3731 95.488C75.6118 94.0561 75.7013 92.4751 75.7013 90.7747C75.7013 89.0744 75.582 87.5232 75.3134 86.0615C75.0747 84.6296 74.657 83.3767 74.1199 82.3327C73.5828 81.2886 72.8666 80.4533 71.9715 79.8567C71.0763 79.2601 70.0021 78.9618 68.719 78.9618C67.4956 78.9618 66.4811 79.2601 65.6456 79.8567C64.8101 80.4533 64.1835 81.2588 63.6763 82.3327C63.1988 83.3767 62.8408 84.6296 62.6319 86.0615C62.5125 87.5232 62.423 89.0744 62.423 90.7747ZM88.5321 79.5286C87.2789 79.3198 86.2046 78.932 85.2796 78.3652V76.8438H106.614C106.614 77.4404 106.585 78.1265 106.525 78.8723C106.465 79.6181 106.406 80.3638 106.316 81.1096C106.227 81.8554 106.137 82.5713 106.048 83.2574C105.928 83.9435 105.839 84.57 105.719 85.1368H104.078L101.602 79.4689H94.4402V88.5374C94.6789 88.5076 94.9773 88.4778 95.3055 88.448C95.6636 88.4181 95.9918 88.3883 96.3499 88.3585C96.7079 88.3286 97.066 88.2988 97.4241 88.2988C97.7822 88.2988 98.0805 88.269 98.3491 88.269C99.6918 88.269 100.975 88.4181 102.198 88.7164C103.422 89.0147 104.496 89.492 105.391 90.1185C106.316 90.7748 107.032 91.61 107.569 92.6541C108.106 93.6982 108.375 94.9212 108.375 96.3829C108.375 97.785 108.077 99.008 107.51 100.082C106.943 101.156 106.167 102.021 105.152 102.737C104.168 103.453 102.974 103.96 101.631 104.318C100.259 104.676 98.7967 104.855 97.2152 104.855C97.0958 104.855 96.7378 104.855 96.2305 104.825C95.6934 104.825 95.0966 104.795 94.4402 104.795C93.7837 104.795 93.1273 104.765 92.441 104.765C91.7845 104.765 91.2474 104.736 90.8595 104.736H85.1901V103.214C85.6974 102.916 86.2046 102.677 86.7716 102.468C87.3087 102.26 87.8756 102.14 88.4724 102.051V79.5286H88.5321ZM96.7378 90.8344C96.32 90.8344 95.9023 90.8642 95.5144 90.8941C95.1265 90.9239 94.7983 90.9836 94.5297 91.0731V102.081C94.6491 102.11 94.7983 102.14 95.037 102.17C95.2757 102.2 95.4846 102.23 95.7233 102.23C95.962 102.23 96.2007 102.26 96.4096 102.26C96.6483 102.26 96.8273 102.26 96.9467 102.26C98.4983 102.26 99.7217 101.752 100.617 100.738C101.512 99.724 101.96 98.3219 101.96 96.5022C101.96 94.7422 101.542 93.37 100.736 92.3856C99.8709 91.3117 98.558 90.8344 96.7378 90.8344ZM122.638 104.676H110.613V103.154C111.06 102.916 111.598 102.677 112.194 102.468C112.791 102.26 113.358 102.11 113.895 101.991V79.4988C113.269 79.3794 112.642 79.2303 112.075 79.0215C111.478 78.8126 111.001 78.574 110.643 78.3354V76.814H122.638V78.3354C122.25 78.6038 121.802 78.8425 121.295 79.0513C120.818 79.2601 120.311 79.4093 119.803 79.4988V89.1042H130.336V79.4988C129.74 79.3794 129.232 79.2303 128.755 79.0215C128.278 78.8126 127.86 78.574 127.502 78.3354V76.814H139.527V78.3354C139.079 78.6337 138.572 78.8723 137.975 79.0513C137.378 79.2303 136.811 79.3794 136.274 79.4988V102.021C136.871 102.14 137.468 102.289 138.035 102.498C138.602 102.707 139.109 102.946 139.527 103.184V104.706H127.502V103.184C127.89 102.946 128.337 102.707 128.815 102.498C129.292 102.289 129.799 102.14 130.336 102.021V91.7293H119.803V102.021C120.34 102.14 120.818 102.26 121.265 102.468C121.713 102.647 122.161 102.886 122.608 103.184V104.676H122.638ZM166.8 76.8737V78.395C166.442 78.6038 165.994 78.8126 165.397 79.0215C164.8 79.2303 164.204 79.4093 163.517 79.5286V102.021C164.204 102.14 164.8 102.319 165.337 102.528C165.875 102.737 166.352 102.946 166.77 103.154V104.676H154.446V103.154C154.894 102.916 155.371 102.707 155.908 102.498C156.416 102.289 156.983 102.14 157.55 101.991V93.191H154.208C153.402 95.0405 152.626 96.8304 151.791 98.5606C150.985 100.291 150 101.902 148.837 103.393L147.195 104.676H140.332V103.333L142.093 102.379C143.794 100.529 145.166 98.8589 146.211 97.3077C147.255 95.7565 148.24 94.3246 149.135 92.9822C148.449 92.7436 147.762 92.4154 147.076 92.0276C146.39 91.61 145.763 91.1029 145.226 90.4764C144.689 89.85 144.241 89.1042 143.913 88.2093C143.585 87.3442 143.406 86.33 143.406 85.1666C143.406 83.6452 143.734 82.3327 144.391 81.2886C145.047 80.2147 145.912 79.3496 147.016 78.6933C148.091 78.0072 149.374 77.5299 150.776 77.2615C152.208 76.9631 153.67 76.814 155.192 76.814C155.461 76.814 155.819 76.814 156.237 76.8438C156.684 76.8438 157.132 76.8737 157.639 76.8737C158.116 76.8737 158.624 76.9035 159.131 76.9035C159.638 76.9035 160.086 76.9333 160.474 76.9333H166.8V76.8737ZM155.133 90.9537C155.491 90.9537 155.938 90.9239 156.475 90.8941C157.012 90.8642 157.341 90.8046 157.579 90.7449V79.5584C157.37 79.4988 157.042 79.4689 156.595 79.4093C156.147 79.3794 155.759 79.3496 155.431 79.3496C154.655 79.3496 153.939 79.4391 153.253 79.6479C152.566 79.8567 151.97 80.1849 151.462 80.6323C150.955 81.0798 150.537 81.6764 150.239 82.3923C149.941 83.1083 149.791 83.9734 149.791 85.0174C149.791 87.0161 150.269 88.4778 151.253 89.492C152.208 90.4466 153.491 90.9537 155.133 90.9537ZM183.002 76.8737H193.655V78.395C193.207 78.6933 192.7 78.932 192.103 79.1408C191.506 79.3496 190.999 79.4689 190.522 79.5584L182.972 89.1341C183.569 89.9693 184.285 90.9537 185.121 92.0276C185.926 93.1015 186.822 94.2053 187.747 95.3687C188.672 96.5321 189.626 97.6955 190.611 98.8589C191.596 100.052 192.551 101.156 193.476 102.2L195.385 103.363V104.706H188.463L186.881 103.602C186.255 102.797 185.568 101.931 184.882 100.947C184.166 99.9924 183.48 98.9782 182.793 97.9341C182.107 96.89 181.421 95.846 180.764 94.7721C180.108 93.728 179.481 92.6839 178.884 91.6697H177.184V102.021C177.78 102.14 178.288 102.289 178.765 102.498C179.242 102.707 179.66 102.946 179.988 103.184V104.706H167.963V103.184C168.5 102.916 169.038 102.677 169.604 102.498C170.171 102.289 170.708 102.14 171.246 102.051V79.5584C170.649 79.4689 170.052 79.3198 169.485 79.111C168.918 78.9021 168.411 78.6635 167.993 78.395V76.8737H180.018V78.395C179.66 78.6038 179.242 78.8126 178.765 79.0215C178.288 79.2303 177.75 79.4093 177.184 79.5286V89.6114L179.541 89.0446L185.926 79.4988C185.389 79.3794 184.882 79.2303 184.345 78.9916C183.838 78.753 183.39 78.5442 183.002 78.3354V76.8737ZM208.604 104.676H196.639V103.154C197.146 102.886 197.683 102.647 198.22 102.439C198.787 102.23 199.324 102.081 199.891 101.991V79.4988C199.354 79.3794 198.817 79.2004 198.22 79.0513C197.623 78.8723 197.116 78.6337 196.639 78.3652V76.8438H208.604V78.3652C208.216 78.6038 207.768 78.8425 207.261 79.0513C206.754 79.2601 206.217 79.4093 205.62 79.5286V94.6229L205.232 97.7253L207.172 94.4738L217.168 80.4832V79.5286C215.914 79.2303 214.87 78.8425 214.035 78.3652V76.8438H226V78.3652C225.552 78.6635 225.045 78.9021 224.478 79.0513C223.911 79.2303 223.344 79.3794 222.748 79.4988V102.021C223.344 102.14 223.941 102.289 224.478 102.468C225.015 102.677 225.523 102.886 226 103.154V104.676H214.035V103.154C214.393 102.976 214.84 102.767 215.377 102.528C215.885 102.289 216.452 102.11 217.018 101.991V86.9266L217.406 83.7944L215.616 86.9266L205.441 101.096V101.961C206.038 102.081 206.605 102.26 207.142 102.468C207.679 102.677 208.156 102.886 208.574 103.095L208.604 104.676Z" fill="white"/>
</svg>
