<svg width="278" height="41" viewBox="0 0 278 41" fill="none" xmlns="http://www.w3.org/2000/svg">
<g clip-path="url(#clip0_32_596)">
<path fill-rule="evenodd" clip-rule="evenodd" d="M94.3163 13.6007H87.5794C83.5304 13.6007 81.3571 17.0503 80.8195 20.8072L78.8976 34.2543L103.206 34.275C104.411 34.2779 105.394 35.2821 105.391 36.5137C105.391 37.7453 104.409 38.7495 103.203 38.7465L76.3658 38.7258C75.7069 38.7229 75.1404 38.46 74.7127 37.9491C74.2821 37.4411 74.1087 36.8297 74.204 36.1652L76.4901 20.1633C77.3485 14.156 81.2992 9.12916 87.5794 9.12916H96.5041C97.7093 9.12916 98.6919 10.1333 98.6919 11.3649V29.638C98.6919 30.8696 97.7064 31.8738 96.5041 31.8738C95.2989 31.8738 94.3163 30.8696 94.3163 29.638V13.6007ZM63.1754 27.3963H66.2216C67.2273 25.2462 67.7447 22.8982 67.7447 20.497C67.7447 11.6455 60.7246 4.47155 52.06 4.47155C43.3984 4.47155 36.3783 11.6455 36.3783 20.497C36.3783 29.3545 43.4042 36.5137 52.0629 36.5255L54.2334 36.5284C54.8134 36.53 55.3691 36.7666 55.7787 37.1862C56.1883 37.6059 56.4183 38.1744 56.4183 38.7672C56.4154 39.9988 55.4328 41 54.2276 41L52.0572 40.997C40.9852 40.9793 32.0027 31.8206 32.0027 20.497C32.0027 9.17937 40.9852 0 52.06 0C63.1378 0 72.1203 9.17937 72.1203 20.497C72.1203 24.1062 71.2012 27.6297 69.4325 30.7515C69.0307 31.4633 68.34 31.8679 67.5395 31.8679H60.9905C59.7853 31.8679 58.8027 30.8637 58.8027 29.6351L58.7969 20.4852C58.794 16.6841 55.7825 13.6007 52.06 13.6007C48.3376 13.6007 45.3203 16.6812 45.3203 20.4852C45.3203 24.3011 48.352 27.3757 52.0427 27.3934L54.2739 27.3668C55.479 27.355 56.4732 28.3474 56.4877 29.5789C56.4992 30.8105 55.5282 31.8236 54.323 31.8383L52.0918 31.862C52.0803 31.8649 52.0716 31.8649 52.0572 31.8649C45.9243 31.8354 40.9447 26.7613 40.9447 20.4852C40.9447 14.2121 45.9215 9.12916 52.06 9.12916C58.1957 9.12916 63.1667 14.215 63.1725 20.4823L63.1754 27.3963ZM11.3095 31.9151L11.3124 36.4753C11.3124 37.7069 10.3298 38.7111 9.12462 38.7111C7.91945 38.7111 6.93681 37.7069 6.93681 36.4782L6.93392 31.9181L2.44558 31.921C1.24041 31.921 0.254883 30.9169 0.254883 29.6853C0.254883 28.4566 1.23752 27.4495 2.44269 27.4495L18.0666 27.4406C21.7977 27.4377 24.7861 24.2775 24.7861 20.4852C24.7861 16.6812 21.7688 13.6007 18.0493 13.6007H11.3067L11.2922 22.7978C11.2893 24.0294 10.3067 25.0336 9.1015 25.0306C7.89632 25.0277 6.91369 24.0205 6.91658 22.7919L6.93681 11.359C6.93681 10.1304 7.91945 9.12916 9.12462 9.12916H18.0493C24.185 9.12916 29.1588 14.215 29.1588 20.4852C29.1588 26.7436 24.2168 31.9063 18.0695 31.9092L11.3095 31.9151ZM112.059 9.1203V40.997H113.394V9.1203H112.059Z" fill="#007EEE"/>
<path d="M120.543 20.4291V9.22069L121.155 9.21183L121.947 9.20592L122.754 9.19706L123.412 9.1882C124.196 9.1882 124.849 9.28862 125.369 9.48355C125.892 9.68143 126.308 9.94429 126.615 10.2692C126.924 10.5941 127.144 10.9662 127.274 11.3826C127.404 11.7991 127.47 12.2244 127.47 12.6644C127.471 13.1162 127.389 13.5641 127.227 13.9846C127.065 14.4062 126.817 14.7877 126.499 15.104C126.175 15.4289 125.765 15.6917 125.268 15.8896C124.771 16.0875 124.19 16.185 123.522 16.185C123.303 16.185 123.04 16.1791 122.739 16.1702L121.875 16.12V20.4291H120.543ZM123.537 10.47L122.739 10.4789L121.875 10.5025V14.8234L122.675 14.8795L123.473 14.9032C124.288 14.9032 124.924 14.7053 125.378 14.3036C125.831 13.9049 126.06 13.3526 126.06 12.6467C126.06 11.9733 125.858 11.4446 125.456 11.0548C125.054 10.6649 124.415 10.47 123.537 10.47ZM128.895 14.8234C128.895 14.0142 129.034 13.2551 129.311 12.5492C129.586 11.8463 129.973 11.235 130.47 10.7181C130.964 10.2012 131.557 9.79366 132.239 9.50127C132.924 9.20592 133.672 9.0612 134.487 9.0612C135.282 9.0612 136.022 9.20297 136.704 9.48355C137.389 9.76708 137.982 10.1628 138.484 10.6708C138.984 11.1759 139.377 11.7813 139.658 12.4872C139.941 13.1901 140.083 13.9699 140.083 14.8234C140.083 15.6563 139.941 16.4242 139.658 17.1301C139.377 17.833 138.984 18.4444 138.484 18.9553C137.982 19.4663 137.389 19.8679 136.704 20.1574C136.022 20.4439 135.282 20.5886 134.487 20.5886C133.695 20.5886 132.956 20.4468 132.271 20.1633C131.586 19.8827 130.993 19.4869 130.493 18.9789C129.99 18.4739 129.6 17.8655 129.317 17.1626C129.037 16.4567 128.895 15.677 128.895 14.8234ZM130.305 14.8234C130.305 15.4643 130.412 16.058 130.626 16.6014C130.84 17.1448 131.135 17.6174 131.511 18.0191C131.886 18.4178 132.331 18.7338 132.843 18.9642C133.354 19.1916 133.904 19.3068 134.487 19.3068C135.115 19.3068 135.684 19.1916 136.195 18.9642C136.707 18.7338 137.149 18.4178 137.519 18.0191C137.892 17.6174 138.175 17.1448 138.375 16.5925C138.571 16.0432 138.672 15.4555 138.672 14.8234C138.672 14.1736 138.565 13.5741 138.351 13.0218C138.135 12.4725 137.84 11.9999 137.464 11.6071C137.088 11.2113 136.646 10.9012 136.135 10.6767C135.62 10.4523 135.074 10.3401 134.487 10.3401C133.892 10.3401 133.34 10.4523 132.828 10.6767C132.317 10.9012 131.875 11.2113 131.505 11.6071C131.132 11.9999 130.84 12.4725 130.626 13.0218C130.412 13.5741 130.305 14.1736 130.305 14.8234ZM150.672 19.3393C150.484 19.5312 150.262 19.7055 150.007 19.8591C149.75 20.0156 149.475 20.1456 149.178 20.2519C148.869 20.3609 148.552 20.4439 148.23 20.5C147.893 20.5593 147.552 20.5889 147.21 20.5886C146.386 20.5886 145.632 20.4527 144.955 20.181C144.276 19.9093 143.689 19.5224 143.198 19.0203C142.71 18.5182 142.328 17.9127 142.057 17.201C141.785 16.4921 141.649 15.7006 141.649 14.8234C141.649 14.023 141.77 13.2699 142.016 12.567C142.262 11.8611 142.62 11.2527 143.091 10.7329C143.559 10.216 144.135 9.80843 144.814 9.51013C145.493 9.20888 146.259 9.0612 147.117 9.0612C147.828 9.0612 148.461 9.15571 149.019 9.34769C149.58 9.53966 150.056 9.80843 150.452 10.1481L149.842 11.1729C149.475 10.8953 149.077 10.6886 148.643 10.5497C148.21 10.4109 147.707 10.3401 147.132 10.3401C146.536 10.3401 145.987 10.4523 145.487 10.6708C144.984 10.8894 144.554 11.1966 144.195 11.5894C143.834 11.9851 143.554 12.4577 143.357 13.007C143.158 13.5564 143.059 14.1618 143.059 14.8234C143.059 15.4968 143.163 16.1082 143.372 16.6575C143.58 17.2069 143.874 17.6765 144.25 18.0663C144.626 18.4562 145.074 18.7604 145.597 18.9789C146.12 19.1975 146.698 19.3068 147.337 19.3068C147.869 19.3068 148.374 19.2182 148.857 19.0439C149.337 18.8667 149.764 18.6245 150.14 18.3144L150.672 19.3393ZM160.527 19.3393C160.339 19.5312 160.117 19.7055 159.862 19.8591C159.605 20.0156 159.328 20.1456 159.03 20.2519C158.732 20.3582 158.417 20.4409 158.082 20.5C157.75 20.559 157.409 20.5886 157.065 20.5886C156.238 20.5886 155.487 20.4527 154.808 20.181C154.129 19.9093 153.545 19.5224 153.053 19.0203C152.562 18.5182 152.181 17.9127 151.912 17.201C151.64 16.4921 151.504 15.7006 151.504 14.8234C151.504 14.023 151.626 13.2699 151.871 12.567C152.117 11.8611 152.475 11.2527 152.944 10.7329C153.415 10.216 153.99 9.80843 154.669 9.51013C155.348 9.20888 156.114 9.0612 156.969 9.0612C157.68 9.0612 158.316 9.15571 158.874 9.34769C159.432 9.53966 159.912 9.80843 160.308 10.1481L159.698 11.1729C159.331 10.8953 158.932 10.6886 158.498 10.5497C158.065 10.4109 157.562 10.3401 156.987 10.3401C156.391 10.3401 155.842 10.4523 155.342 10.6708C154.839 10.8894 154.409 11.1966 154.048 11.5894C153.689 11.9851 153.409 12.4577 153.209 13.007C153.013 13.5564 152.912 14.1618 152.912 14.8234C152.912 15.4968 153.019 16.1082 153.227 16.6575C153.435 17.2069 153.727 17.6765 154.103 18.0663C154.478 18.4562 154.929 18.7604 155.452 18.9789C155.972 19.1975 156.553 19.3068 157.189 19.3068C157.724 19.3068 158.23 19.2182 158.709 19.0439C159.189 18.8667 159.62 18.6245 159.995 18.3144L160.527 19.3393ZM162.643 20.4291V9.22069H163.975V18.1874L170.634 9.22069H171.807V20.4291H170.475V11.4624L163.816 20.4291H162.643ZM175.099 20.4291V9.22069H176.429V18.1874L183.087 9.22069H184.264V20.4291H182.931V11.4624L176.273 20.4291H175.099ZM178.108 6.66003C178.211 6.97725 178.418 7.2484 178.694 7.42794C178.972 7.6081 179.333 7.69965 179.784 7.69965C180.191 7.69965 180.541 7.614 180.833 7.4427C181.125 7.2714 181.313 7.0115 181.397 6.66003H182.651C182.619 6.95833 182.521 7.23005 182.359 7.47519C182.193 7.72539 181.981 7.94008 181.735 8.10723C181.478 8.28444 181.183 8.4203 180.848 8.51481C180.515 8.61227 180.16 8.65953 179.784 8.65953C178.957 8.65953 178.287 8.47346 177.77 8.10133C177.252 7.72624 176.946 7.24482 176.853 6.66003H178.108ZM195.717 19.3393C195.529 19.5312 195.307 19.7055 195.052 19.8591C194.795 20.0156 194.518 20.1456 194.22 20.2519C193.922 20.3582 193.607 20.4409 193.272 20.5C192.94 20.559 192.599 20.5886 192.255 20.5886C191.428 20.5886 190.677 20.4527 189.998 20.181C189.318 19.9093 188.735 19.5224 188.243 19.0203C187.752 18.5182 187.371 17.9127 187.099 17.201C186.827 16.4921 186.691 15.7006 186.691 14.8234C186.691 14.023 186.816 13.2699 187.061 12.567C187.307 11.8611 187.665 11.2527 188.134 10.7329C188.605 10.216 189.18 9.80843 189.856 9.51013C190.535 9.20888 191.304 9.0612 192.159 9.0612C192.87 9.0612 193.506 9.15571 194.064 9.34769C194.622 9.53966 195.102 9.80843 195.498 10.1481L194.888 11.1729C194.521 10.8953 194.122 10.6886 193.688 10.5497C193.255 10.4109 192.749 10.3401 192.177 10.3401C191.581 10.3401 191.032 10.4523 190.532 10.6708C190.029 10.8894 189.599 11.1966 189.238 11.5894C188.879 11.9851 188.599 12.4577 188.399 13.007C188.203 13.5564 188.102 14.1618 188.102 14.8234C188.102 15.4968 188.206 16.1082 188.417 16.6575C188.625 17.2069 188.917 17.6765 189.292 18.0663C189.668 18.4562 190.119 18.7604 190.639 18.9789C191.162 19.1975 191.743 19.3068 192.379 19.3068C192.914 19.3068 193.42 19.2182 193.899 19.0439C194.379 18.8667 194.807 18.6245 195.185 18.3144L195.717 19.3393ZM200.966 14.4808L206.104 20.4291H204.396L199.431 14.5753L204.24 9.22069H205.853L200.966 14.4808ZM197.833 9.22069H199.162V20.4291H197.833V9.22069ZM208.064 20.4291V9.22069H209.393V18.1874L216.052 9.22069H217.228V20.4291H215.896V11.4624L209.237 20.4291H208.064ZM220.517 20.4291V9.22069H221.85V18.1874L228.508 9.22069H229.685V20.4291H228.352V11.4624L221.693 20.4291H220.517ZM223.526 6.66003C223.641 6.99082 223.838 7.24482 224.115 7.42794C224.39 7.6081 224.754 7.69965 225.202 7.69965C225.61 7.69965 225.959 7.614 226.254 7.4427C226.546 7.2714 226.734 7.0115 226.818 6.66003H228.069C228.041 6.95227 227.942 7.23264 227.78 7.47519C227.618 7.72033 227.41 7.93298 227.153 8.10723C226.899 8.28444 226.604 8.4203 226.268 8.51481C225.933 8.61227 225.581 8.65953 225.202 8.65953C224.378 8.65953 223.708 8.47346 223.191 8.10133C222.673 7.72624 222.367 7.24482 222.274 6.66003H223.526ZM125.158 27.6326H126.303L131.019 38.906H129.594L128.184 35.5095H123.184L121.791 38.906H120.444L125.158 27.6326ZM123.719 34.2306H127.667L125.693 29.4431L123.719 34.2306ZM136.597 36.3424C136.221 37.2077 135.823 37.8516 135.406 38.2739C134.987 38.6933 134.476 38.906 133.872 38.906C133.629 38.906 133.383 38.8676 133.135 38.7908C132.883 38.714 132.684 38.6195 132.539 38.4984L133.008 37.3347C133.155 37.444 133.294 37.5178 133.424 37.5592C133.554 37.6035 133.698 37.6242 133.854 37.6242C134.169 37.6242 134.435 37.5149 134.655 37.2993C134.875 37.0837 135.057 36.8149 135.201 36.4989L135.389 36.0854L130.424 27.6976H131.927L136.034 34.7268L139.042 27.6976H140.389L136.597 36.3424ZM145.4 32.9577L150.542 38.906H148.834L143.866 33.0522L148.678 27.6976H150.29L145.4 32.9577ZM142.268 27.6976H143.6V38.906H142.268V27.6976ZM152.499 27.6976H153.831V37.6242H159.706V27.6976H161.039V37.6242H162.527V40.9852H161.273V38.906H152.499V27.6976ZM164.643 38.906V27.6976H165.972V36.6643L172.631 27.6976H173.807V38.906H172.475V29.9392L165.816 38.906H164.643ZM176.235 33.3003C176.235 32.491 176.374 31.732 176.651 31.0261C176.929 30.3232 177.313 29.7118 177.81 29.195C178.307 28.6781 178.897 28.2705 179.582 27.9781C180.264 27.6828 181.015 27.5381 181.83 27.5381C182.622 27.5381 183.362 27.6798 184.047 27.9604C184.729 28.244 185.324 28.6397 185.824 29.1448C186.327 29.6528 186.717 30.2582 187.001 30.9641C187.281 31.667 187.423 32.4467 187.423 33.3003C187.423 34.1332 187.281 34.9011 187.001 35.6069C186.717 36.3099 186.327 36.9212 185.824 37.4322C185.324 37.9431 184.729 38.3448 184.047 38.6342C183.362 38.9207 182.622 39.0655 181.83 39.0655C181.035 39.0655 180.296 38.9237 179.613 38.6402C178.929 38.3566 178.336 37.9638 177.833 37.4558C177.333 36.9478 176.94 36.3424 176.66 35.6394C176.377 34.9336 176.235 34.1538 176.235 33.3003ZM177.645 33.3003C177.645 33.9412 177.752 34.5348 177.966 35.0783C178.17 35.6046 178.471 36.0859 178.853 36.4959C179.229 36.8947 179.671 37.2107 180.183 37.441C180.694 37.6685 181.244 37.7837 181.83 37.7837C182.454 37.7837 183.024 37.6685 183.538 37.441C184.05 37.2107 184.489 36.8947 184.862 36.4959C185.232 36.0943 185.515 35.6188 185.715 35.0694C185.914 34.5201 186.012 33.9294 186.012 33.3003C186.012 32.6505 185.905 32.048 185.691 31.4987C185.478 30.9493 185.183 30.4768 184.807 30.084C184.427 29.6869 183.975 29.3706 183.475 29.1536C182.963 28.9292 182.414 28.8169 181.83 28.8169C181.235 28.8169 180.68 28.9292 180.168 29.1536C179.657 29.3781 179.215 29.6882 178.845 30.084C178.475 30.4768 178.18 30.9493 177.966 31.4987C177.752 32.048 177.645 32.6505 177.645 33.3003ZM197.214 33.829H191.183V38.906H189.85V27.6976H191.183V32.5472H197.214V27.6976H198.547V38.906H197.214V33.829ZM209.2 33.829H203.168V38.906H201.836V27.6976H203.168V32.5472H209.2V27.6976H210.532V38.906H209.2V33.829ZM222.439 27.6976H223.771V38.906H222.439V27.6976ZM216.517 33.0611C216.15 33.0611 215.696 33.0935 215.153 33.1556V37.6094L215.78 37.6389L216.471 37.6567C217.379 37.6567 218.072 37.4588 218.546 37.063C219.02 36.6702 219.26 36.0706 219.26 35.2703C219.26 34.5555 219.023 34.0091 218.555 33.6281C218.084 33.2501 217.405 33.0611 216.517 33.0611ZM215.153 31.859L215.977 31.8029L216.613 31.7793C217.991 31.7793 219.011 32.0923 219.673 32.7155C220.338 33.3416 220.67 34.1804 220.67 35.2378C220.67 36.4221 220.286 37.3347 219.517 37.9756C218.748 38.6165 217.682 38.9355 216.315 38.9355C215.844 38.9355 215.393 38.9325 214.959 38.9207L213.824 38.906V27.6976H215.153V31.859ZM227.06 38.906V27.6976H228.393V36.6643L235.052 27.6976H236.228V38.906H234.895V29.9392L228.237 38.906H227.06ZM230.069 25.134C230.185 25.4677 230.381 25.7217 230.659 25.9048C230.933 26.085 231.297 26.1765 231.745 26.1765C232.153 26.1765 232.502 26.0909 232.797 25.9196C233.089 25.7483 233.277 25.4884 233.361 25.134H234.612C234.583 25.4352 234.485 25.7069 234.323 25.9521C234.156 26.2024 233.943 26.417 233.696 26.5841C233.442 26.7613 233.147 26.8972 232.812 26.9917C232.476 27.0892 232.121 27.1364 231.745 27.1364C230.922 27.1364 230.251 26.9503 229.734 26.5753C229.216 26.2031 228.91 25.7217 228.818 25.134H230.069ZM241.632 37.6242H242.809C242.924 37.4853 243.069 37.2254 243.248 36.8474C243.424 36.4694 243.603 35.9614 243.788 35.3264C243.97 34.6914 244.138 33.9294 244.288 33.0374C244.439 32.1455 244.546 31.1118 244.609 29.9392L244.719 27.6976H251.175V37.6242H252.664V40.9852H251.41V38.906H242.887V40.9852H241.632V37.6242ZM245.863 30.9789C245.8 31.9387 245.702 32.8041 245.566 33.572L245.126 35.5597C245.126 35.5597 244.817 36.5639 244.664 36.9124C244.514 37.2579 244.384 37.4972 244.28 37.6242H249.843V28.9794H246.005L245.863 30.9789ZM253.774 33.3003C253.774 32.491 253.912 31.732 254.19 31.0261C254.467 30.3232 254.855 29.7118 255.349 29.195C255.846 28.6781 256.435 28.2705 257.12 27.9781C257.805 27.6828 258.554 27.5381 259.369 27.5381C260.161 27.5381 260.901 27.6798 261.586 27.9604C262.271 28.244 262.863 28.6397 263.363 29.1448C263.866 29.6528 264.256 30.2582 264.539 30.9641C264.82 31.667 264.961 32.4467 264.961 33.3003C264.961 34.1332 264.82 34.9011 264.539 35.6069C264.256 36.3099 263.866 36.9212 263.363 37.4322C262.863 37.9431 262.271 38.3448 261.586 38.6342C260.901 38.9207 260.161 39.0655 259.369 39.0655C258.574 39.0655 257.834 38.9237 257.152 38.6402C256.467 38.3566 255.875 37.9638 255.372 37.4558C254.872 36.9478 254.479 36.3424 254.198 35.6394C253.915 34.9336 253.774 34.1538 253.774 33.3003ZM255.184 33.3003C255.184 33.9412 255.291 34.5348 255.508 35.0783C255.722 35.6217 256.016 36.0943 256.392 36.4959C256.768 36.8947 257.21 37.2107 257.724 37.441C258.236 37.6685 258.782 37.7837 259.369 37.7837C259.996 37.7837 260.565 37.6685 261.077 37.441C261.588 37.2107 262.031 36.8947 262.401 36.4959C262.771 36.0943 263.057 35.6188 263.253 35.0694C263.453 34.5201 263.551 33.9294 263.551 33.3003C263.551 32.6505 263.444 32.048 263.23 31.4987C263.016 30.9493 262.721 30.4768 262.346 30.084C261.97 29.6882 261.525 29.3781 261.013 29.1536C260.502 28.9292 259.953 28.8169 259.369 28.8169C258.773 28.8169 258.219 28.9292 257.707 29.1536C257.195 29.3781 256.753 29.6882 256.383 30.084C256.013 30.4768 255.722 30.9493 255.508 31.4987C255.291 32.048 255.184 32.6505 255.184 33.3003ZM267.389 27.6976H268.739L272.857 33.445L276.805 27.6976H278.077V38.906H276.744V29.8418L272.857 35.415H272.655L268.721 29.892V38.906H267.389V27.6976Z" fill="#007EEE"/>
</g>
<defs>
<clipPath id="clip0_32_596">
<rect width="278" height="41" fill="white"/>
</clipPath>
</defs>
</svg>
