<svg width="140" height="140" viewBox="0 0 140 140" fill="none" xmlns="http://www.w3.org/2000/svg">
<path d="M25.4658 49.084H29.1758V51.548C30.0981 50.6037 31.2032 49.8572 32.4236 49.3541C33.6439 48.8511 34.954 48.602 36.2738 48.622C42.2098 48.622 45.9198 53.032 45.9198 59.192C45.9198 65.352 41.6078 70.392 35.0698 70.392C33.0131 70.4837 30.9716 69.9988 29.1758 68.992V79.24H25.4658V49.084ZM29.1758 54.978V65.324C30.8204 66.451 32.7834 67.0202 34.7758 66.948C39.1998 66.948 41.9998 63.742 41.9998 59.332C41.9998 54.922 39.5358 52.094 35.2238 52.094C34.0664 52.1047 32.9254 52.3684 31.8806 52.8666C30.8359 53.3648 29.9127 54.0854 29.1758 54.978V54.978Z" fill="white"/>
<path d="M68.3198 67.69C66.1183 69.5105 63.3359 70.4793 60.4798 70.42C53.7038 70.42 49.2798 66.108 49.2798 59.514C49.2798 53.438 53.1858 48.622 60.0458 48.622C61.3196 48.5718 62.5902 48.7834 63.779 49.2436C64.9678 49.7039 66.0496 50.403 66.9576 51.2979C67.8655 52.1927 68.5803 53.2642 69.0578 54.4462C69.5353 55.6282 69.7654 56.8956 69.7338 58.17C69.7465 59.0108 69.6715 59.8507 69.5098 60.676H53.4658C53.8018 64.624 56.6718 66.948 60.7598 66.948C63.1002 67.0246 65.3888 66.2485 67.1998 64.764L68.3198 67.69ZM53.1998 57.666H65.7998C65.802 56.8938 65.6444 56.1296 65.3371 55.4213C65.0298 54.713 64.5793 54.0758 64.014 53.5499C63.4486 53.0241 62.7807 52.6207 62.052 52.3654C61.3233 52.11 60.5497 52.0081 59.7798 52.066C58.1734 51.9745 56.5935 52.5053 55.3682 53.5481C54.1429 54.591 53.3664 56.0656 53.1998 57.666V57.666Z" fill="white"/>
<path d="M74.2002 49.084H77.8402V70H74.2002V49.084ZM82.8942 58.8L87.5282 63.77C88.9282 65.296 90.9582 67.242 92.8202 66.5V69.986C89.7122 70.91 86.5482 68.824 84.4202 65.996L78.6242 59.08L87.9482 49.112H92.4002L82.8942 58.8Z" fill="white"/>
<path d="M111.23 67.774C109.501 69.4471 107.196 70.394 104.79 70.42C98.4758 70.42 94.4438 66.108 94.4438 59.514C94.4438 53.438 99.3578 48.622 106.176 48.622C109.256 48.6133 112.282 49.4303 114.94 50.988V70H111.23V67.774ZM111.23 64.204V53.438C109.682 52.5357 107.925 52.0531 106.134 52.038C105.116 51.9977 104.101 52.166 103.151 52.5326C102.201 52.8993 101.337 53.4564 100.61 54.1699C99.8834 54.8833 99.3106 55.7379 98.9267 56.6811C98.5428 57.6242 98.356 58.636 98.3778 59.654C98.3778 64.19 101.262 66.892 105.378 66.892C106.484 66.8595 107.572 66.6047 108.577 66.1429C109.582 65.6811 110.485 65.0217 111.23 64.204V64.204Z" fill="white"/>
<path d="M53.1998 88.9699C52.4748 88.9862 51.7636 88.7704 51.1698 88.3539L51.3518 88.06C51.888 88.437 52.5305 88.6332 53.1859 88.6199C53.4949 88.647 53.806 88.6034 54.0957 88.4925C54.3854 88.3815 54.646 88.206 54.8578 87.9794C55.0696 87.7527 55.227 87.4808 55.3182 87.1843C55.4093 86.8878 55.4318 86.5744 55.3838 86.2679V85.2459C55.09 85.5891 54.7278 85.8672 54.3204 86.0625C53.9131 86.2577 53.4694 86.3659 53.0178 86.3799C51.4778 86.3799 50.6938 85.5399 50.6938 83.7199V80.3879H51.0718V83.6359C51.0718 85.2319 51.7018 86.0299 53.1438 86.0299C53.5802 86.0082 54.0066 85.8918 54.3934 85.6887C54.7802 85.4856 55.1182 85.2008 55.3838 84.8539V80.3879H55.7478V86.2399C55.7992 86.5947 55.7701 86.9564 55.663 87.2984C55.5558 87.6405 55.3732 87.9541 55.1286 88.2161C54.8841 88.4781 54.5838 88.6819 54.25 88.8124C53.9161 88.9428 53.5573 88.9967 53.1998 88.9699V88.9699Z" fill="white"/>
<path d="M62.2162 80.7379H58.0162V86.254H57.6382V80.3879H62.5942V86.254H62.2162V80.7379Z" fill="white"/>
<path d="M64.5122 80.3879H64.8902V81.1999C65.1822 80.8915 65.5338 80.6456 65.9236 80.4772C66.3135 80.3087 66.7335 80.2212 67.1582 80.2199C67.5447 80.204 67.9301 80.2712 68.2884 80.4171C68.6467 80.563 68.9695 80.7841 69.235 81.0655C69.5004 81.3469 69.7024 81.682 69.8271 82.0482C69.9519 82.4143 69.9966 82.803 69.9582 83.1879C69.9853 83.5944 69.9279 84.0021 69.7899 84.3853C69.6518 84.7686 69.436 85.1191 69.1559 85.415C68.8759 85.7108 68.5377 85.9455 68.1626 86.1043C67.7874 86.2632 67.3835 86.3427 66.9762 86.3379C66.2404 86.3685 65.5142 86.1624 64.9042 85.7499V88.8299H64.5262L64.5122 80.3879ZM64.8902 81.6059V85.3999C65.4922 85.8226 66.2128 86.0432 66.9482 86.0299C67.3092 86.0374 67.6676 85.9685 68.0001 85.8278C68.3326 85.6871 68.6315 85.4776 68.8774 85.2132C69.1233 84.9489 69.3105 84.6355 69.4268 84.2937C69.5431 83.9519 69.5858 83.5894 69.5522 83.2299C69.5909 82.8868 69.5548 82.5393 69.4465 82.2113C69.3383 81.8834 69.1603 81.5828 68.9249 81.3301C68.6895 81.0774 68.4022 80.8786 68.0828 80.7474C67.7633 80.6162 67.4193 80.5557 67.0742 80.5699C66.6577 80.5789 66.2478 80.6758 65.8714 80.8543C65.495 81.0329 65.1606 81.289 64.8902 81.6059V81.6059Z" fill="white"/>
<path d="M76.1879 85.4C75.9163 85.7015 75.5866 85.945 75.2185 86.1158C74.8504 86.2866 74.4515 86.3812 74.0459 86.394C73.6443 86.4139 73.2431 86.3471 72.8695 86.1981C72.496 86.0492 72.159 85.8215 71.8813 85.5305C71.6037 85.2396 71.392 84.8923 71.2606 84.5122C71.1292 84.1321 71.0812 83.7282 71.1199 83.328C71.1253 82.9156 71.213 82.5085 71.3779 82.1305C71.5428 81.7525 71.7817 81.4113 72.0804 81.127C72.3791 80.8426 72.7316 80.6209 73.1172 80.4747C73.5028 80.3286 73.9138 80.261 74.3259 80.276C75.1123 80.2734 75.8835 80.4917 76.5519 80.906V86.268H76.1879V85.4ZM76.1879 84.98V81.2C75.6229 80.8562 74.9733 80.6768 74.3119 80.682C73.5837 80.6816 72.8839 80.9651 72.3611 81.4721C71.8384 81.9792 71.5338 82.67 71.5119 83.398C71.4792 83.7526 71.5233 84.1101 71.6412 84.4461C71.7591 84.7822 71.948 85.0889 72.1952 85.3453C72.4423 85.6017 72.7418 85.8019 73.0732 85.9321C73.4047 86.0623 73.7603 86.1196 74.1159 86.1C74.5231 86.0733 74.9194 85.958 75.2774 85.7621C75.6353 85.5663 75.946 85.2945 76.1879 84.966V84.98Z" fill="white"/>
<path d="M78.4839 80.3879C78.9879 80.3879 79.5339 80.3879 80.2759 80.3879C81.8299 80.3879 82.6279 80.8219 82.6279 81.8719C82.63 82.218 82.5038 82.5527 82.2737 82.8112C82.0436 83.0697 81.7259 83.2339 81.3819 83.2719C82.4599 83.4119 82.8799 83.9159 82.8799 84.6719C82.8799 85.708 82.0259 86.296 80.3179 86.296C79.5899 86.296 79.0159 86.296 78.4839 86.296V80.3879ZM78.8619 80.7379V83.1179H80.6399C81.6199 83.1179 82.2359 82.6139 82.2359 81.8719C82.2359 81.1299 81.3539 80.6959 80.2899 80.6959C79.6599 80.6959 79.2399 80.7239 78.8619 80.7379V80.7379ZM78.8619 83.4259V85.918H80.2619C81.6619 85.918 82.4319 85.4979 82.4319 84.6159C82.4319 83.7339 81.7459 83.3979 80.4719 83.3979L78.8619 83.4259Z" fill="white"/>
<path d="M86.3379 80.29H86.5759L89.3759 86.2541H88.9559L87.0519 82.054C86.8559 81.648 86.6739 81.228 86.4779 80.794L85.9179 82.096L83.9999 86.2541H83.6079L86.3379 80.29Z" fill="white"/>
<path d="M95.0598 85.484C94.7843 85.7736 94.4517 86.0028 94.0829 86.1571C93.7142 86.3113 93.3174 86.3872 92.9178 86.38C92.5087 86.4021 92.0996 86.338 91.7168 86.1919C91.3341 86.0458 90.9863 85.821 90.696 85.532C90.4056 85.2429 90.1792 84.8962 90.0314 84.5141C89.8835 84.132 89.8176 83.7232 89.8378 83.314C89.8014 82.9161 89.8507 82.515 89.9822 82.1376C90.1137 81.7603 90.3245 81.4155 90.6004 81.1264C90.8762 80.8373 91.2107 80.6106 91.5815 80.4615C91.9522 80.3124 92.3506 80.2444 92.7498 80.262C93.1009 80.2459 93.4515 80.3035 93.779 80.4309C94.1066 80.5584 94.4038 80.753 94.6517 81.0022C94.8996 81.2514 95.0926 81.5497 95.2183 81.8779C95.3441 82.2061 95.3997 82.557 95.3818 82.908C95.3903 83.0385 95.3903 83.1695 95.3818 83.3H90.2438C90.2066 83.6673 90.2497 84.0382 90.37 84.3872C90.4904 84.7362 90.6851 85.0549 90.9407 85.3212C91.1964 85.5875 91.5068 85.795 91.8506 85.9295C92.1944 86.064 92.5633 86.1222 92.9318 86.1C93.3003 86.1021 93.6656 86.0315 94.0067 85.8922C94.3479 85.7528 94.6582 85.5475 94.9198 85.288L95.0598 85.484ZM90.2158 82.992H95.0038C95.0327 82.6782 94.9933 82.362 94.8884 82.0648C94.7836 81.7677 94.6156 81.4968 94.3962 81.2707C94.1767 81.0446 93.911 80.8687 93.6171 80.755C93.3233 80.6413 93.0083 80.5925 92.6938 80.612C92.3731 80.5988 92.053 80.6506 91.7529 80.7643C91.4527 80.8779 91.1787 81.0511 90.9472 81.2735C90.7157 81.4958 90.5315 81.7627 90.4059 82.058C90.2802 82.3533 90.2155 82.671 90.2158 82.992V82.992Z" fill="white"/>
<path d="M101.542 83.44H97.3419V86.24H96.9639V80.3879H97.3419V83.09H101.542V80.3879H101.92V86.254H101.542V83.44Z" fill="white"/>
<path d="M103.838 86.254V80.3879H104.216V85.722L108.584 80.3879H108.948V86.254H108.584V80.9199L104.216 86.254H103.838Z" fill="white"/>
<path d="M115.71 85.484C115.435 85.7736 115.102 86.0028 114.733 86.1571C114.365 86.3113 113.968 86.3872 113.568 86.38C113.159 86.4043 112.748 86.3417 112.365 86.1964C111.981 86.0511 111.632 85.8264 111.341 85.5369C111.051 85.2474 110.824 84.8997 110.677 84.5166C110.53 84.1336 110.466 83.7237 110.488 83.314C110.452 82.9161 110.501 82.515 110.633 82.1376C110.764 81.7603 110.975 81.4155 111.251 81.1264C111.527 80.8373 111.861 80.6106 112.232 80.4615C112.603 80.3124 113.001 80.2444 113.4 80.262C113.75 80.2479 114.099 80.307 114.425 80.4353C114.751 80.5637 115.046 80.7586 115.293 81.0076C115.539 81.2565 115.731 81.5541 115.856 81.8813C115.981 82.2086 116.036 82.5582 116.018 82.908C116.026 83.0386 116.026 83.1695 116.018 83.3H110.894C110.855 83.6678 110.896 84.0398 111.015 84.3899C111.135 84.74 111.329 85.0597 111.586 85.3265C111.842 85.5933 112.153 85.8009 112.498 85.9345C112.843 86.0681 113.213 86.1246 113.582 86.1C113.951 86.1021 114.316 86.0315 114.657 85.8922C114.998 85.7528 115.309 85.5475 115.57 85.288L115.71 85.484ZM110.866 82.992H115.64C115.668 82.6844 115.63 82.3743 115.53 82.0824C115.429 81.7904 115.267 81.5231 115.055 81.2982C114.844 81.0733 114.587 80.8958 114.301 80.7775C114.016 80.6592 113.709 80.6028 113.4 80.612C113.075 80.5909 112.749 80.6369 112.442 80.747C112.135 80.8571 111.854 81.0291 111.617 81.2522C111.379 81.4754 111.19 81.7449 111.061 82.0442C110.932 82.3435 110.865 82.6661 110.866 82.992V82.992Z" fill="white"/>
<path d="M31.5839 93.898H27.3839V96.698H27.0059V90.818H27.3839V93.534H31.5839V90.832H31.9619V96.712H31.5839V93.898Z" fill="white"/>
<path d="M38.7382 95.9419C38.3129 96.3719 37.7696 96.6658 37.177 96.7865C36.5844 96.9071 35.9694 96.849 35.4099 96.6195C34.8504 96.39 34.3717 95.9995 34.0346 95.4975C33.6974 94.9955 33.517 94.4047 33.5162 93.7999C33.4759 93.4022 33.5213 93.0005 33.6493 92.6218C33.7773 92.2431 33.9849 91.8962 34.2581 91.6044C34.5313 91.3126 34.8638 91.0827 35.2333 90.9302C35.6028 90.7776 36.0007 90.7059 36.4002 90.7199C36.7494 90.7039 37.0982 90.761 37.4241 90.8878C37.7499 91.0146 38.0456 91.2081 38.2922 91.456C38.5388 91.7039 38.7307 92.0006 38.8558 92.3272C38.9808 92.6537 39.0361 93.0028 39.0182 93.3519C39.0271 93.4871 39.0271 93.6228 39.0182 93.7579H33.9082C33.8812 94.1203 33.9325 94.4842 34.0585 94.825C34.1846 95.1658 34.3825 95.4756 34.6387 95.7332C34.895 95.9908 35.2037 96.1902 35.5439 96.318C35.884 96.4459 36.2477 96.499 36.6102 96.4739C37.3476 96.4783 38.0569 96.1915 38.5842 95.6759L38.7382 95.9419ZM33.8942 93.4499H38.6682C38.6964 93.1399 38.658 92.8274 38.5556 92.5334C38.4531 92.2394 38.289 91.9707 38.0742 91.7453C37.8594 91.5199 37.599 91.343 37.3102 91.2266C37.0215 91.1101 36.7112 91.0567 36.4002 91.0699C36.0772 91.0528 35.7541 91.1017 35.4506 91.2136C35.1472 91.3255 34.8697 91.4981 34.6352 91.7209C34.4007 91.9436 34.214 92.2118 34.0866 92.5091C33.9592 92.8064 33.8937 93.1265 33.8942 93.4499V93.4499Z" fill="white"/>
<path d="M39.6758 96.362H40.4038L42.7838 90.762H43.0218L45.4578 96.362H46.1998V98.238H45.8498V96.712H40.0258V98.238H39.6758V96.362ZM40.7678 96.362H45.0658L43.3998 92.554C43.2178 92.134 43.0498 91.714 42.8678 91.28C42.6718 91.728 42.5038 92.19 42.3218 92.596L40.7678 96.362Z" fill="white"/>
<path d="M47.3618 90.832H49.1678C50.7218 90.832 51.5198 91.266 51.5198 92.316C51.5216 92.6643 51.3934 93.0007 51.1604 93.2596C50.9275 93.5185 50.6063 93.6812 50.2598 93.716C51.3378 93.856 51.7578 94.36 51.7578 95.116C51.7578 96.152 50.9178 96.74 49.1958 96.74C48.4678 96.74 47.8938 96.74 47.3618 96.74V90.832ZM47.7398 91.196V93.562H49.5318C50.5118 93.562 51.1278 93.072 51.1278 92.33C51.1278 91.588 50.2318 91.154 49.1818 91.154C48.5518 91.154 48.1178 91.182 47.7398 91.196ZM47.7398 93.884V96.376H49.1398C50.5398 96.376 51.3098 95.956 51.3098 95.074C51.3098 94.192 50.6378 93.856 49.3498 93.856L47.7398 93.884Z" fill="white"/>
<path d="M53.354 96.712V90.832H53.732V96.18L58.086 90.832H58.45V96.712H58.086V91.378L53.732 96.712H53.354Z" fill="white"/>
<path d="M59.9058 90.832H60.3538L62.8318 93.632L61.5998 95.326C60.7598 96.474 60.4098 96.908 59.6538 96.726V96.376C60.2418 96.6 60.5498 96.124 61.1938 95.312L62.4538 93.674L59.9058 90.832ZM63.3918 90.832H63.7558V96.712H63.3918V90.832ZM64.7218 93.632L65.9958 95.256C66.5978 96.04 67.0458 96.656 67.5638 96.348V96.698C66.9058 96.894 66.4298 96.446 65.7298 95.494L64.3298 93.632L66.8218 90.832H67.1998L64.7218 93.632Z" fill="white"/>
<path d="M68.6982 96.712V90.832H69.0762V96.18L73.4442 90.832H73.8083V96.712H73.4442V91.378L69.0762 96.712H68.6982Z" fill="white"/>
<path d="M75.7261 90.832H76.0901L78.7081 94.43L81.2001 90.832H81.5361V96.712H81.2001V91.392L78.6941 94.934L76.1321 91.392V96.712H75.7541L75.7261 90.832Z" fill="white"/>
<path d="M86.1562 90.72C86.7631 90.7145 87.3581 90.8892 87.8656 91.2221C88.3732 91.555 88.7705 92.0311 89.0073 92.59C89.244 93.1489 89.3096 93.7655 89.1956 94.3617C89.0816 94.9579 88.7932 95.5068 88.367 95.9389C87.9407 96.3711 87.3958 96.667 86.8012 96.7891C86.2066 96.9113 85.5892 96.8542 85.0271 96.6252C84.465 96.3961 83.9835 96.0054 83.6437 95.5024C83.3039 94.9995 83.121 94.407 83.1182 93.8C83.0986 93.3939 83.1634 92.9882 83.3086 92.6084C83.4538 92.2287 83.6761 91.8831 83.9616 91.5937C84.2471 91.3042 84.5896 91.0771 84.9673 90.9268C85.345 90.7764 85.7498 90.706 86.1562 90.72V90.72ZM86.1562 96.474C86.6935 96.4823 87.2211 96.3303 87.6715 96.0372C88.1219 95.7442 88.4748 95.3235 88.6849 94.8289C88.895 94.3343 88.9529 93.7883 88.8511 93.2607C88.7494 92.733 88.4926 92.2477 88.1136 91.8668C87.7347 91.4858 87.2507 91.2265 86.7236 91.1219C86.1965 91.0174 85.6502 91.0724 85.1545 91.28C84.6588 91.4875 84.2363 91.8381 83.9409 92.287C83.6455 92.7359 83.4907 93.2627 83.4962 93.8C83.4804 94.1542 83.5383 94.5077 83.6662 94.8384C83.7941 95.169 83.9893 95.4695 84.2393 95.7208C84.4893 95.9722 84.7887 96.1689 85.1187 96.2985C85.4487 96.4282 85.8019 96.4879 86.1562 96.474V96.474Z" fill="white"/>
<path d="M95.62 95.886C95.3499 96.1936 95.0156 96.4384 94.6406 96.6028C94.2657 96.7673 93.8593 96.8476 93.45 96.838C92.6687 96.8165 91.9251 96.4974 91.3712 95.946C90.8173 95.3946 90.4949 94.6525 90.4698 93.8713C90.4448 93.0901 90.7191 92.3289 91.2365 91.7431C91.754 91.1574 92.4756 90.7914 93.254 90.72C94.0639 90.6671 94.864 90.9221 95.494 91.434L95.312 91.742C94.7529 91.2741 94.0381 91.0342 93.31 91.07C92.9625 91.0789 92.6202 91.157 92.3032 91.2997C91.9862 91.4423 91.7008 91.6467 91.4636 91.9008C91.2264 92.1549 91.0422 92.4537 90.9218 92.7798C90.8013 93.1059 90.747 93.4527 90.762 93.8C90.7437 94.1608 90.8016 94.5215 90.9318 94.8585C91.0621 95.1955 91.2617 95.5013 91.5179 95.7562C91.774 96.011 92.0809 96.2091 92.4186 96.3376C92.7563 96.4661 93.1172 96.5221 93.4779 96.502C93.8428 96.5045 94.2042 96.4311 94.5392 96.2865C94.8743 96.1419 95.1755 95.9292 95.424 95.662L95.62 95.886Z" fill="white"/>
<path d="M96.376 90.832H101.724V91.21H99.232V96.712H98.868V91.21H96.376V90.832Z" fill="white"/>
<path d="M102.858 90.832H103.25V92.988H104.412C106.218 92.988 106.75 93.8 106.75 94.85C106.75 95.9 106.176 96.712 104.37 96.712H102.858V90.832ZM103.25 93.352V96.362H104.356C105.854 96.362 106.358 95.788 106.358 94.85C106.358 93.912 105.826 93.352 104.37 93.352H103.25Z" fill="white"/>
<path d="M108.108 90.8319H108.5V93.5339H110.18C110.18 93.1566 110.256 92.7831 110.403 92.4359C110.551 92.0887 110.767 91.7749 111.039 91.5134C111.311 91.2518 111.633 91.048 111.986 90.914C112.339 90.7801 112.715 90.7188 113.092 90.7339C113.867 90.7864 114.594 91.1315 115.125 91.6994C115.656 92.2673 115.951 93.0156 115.951 93.7929C115.951 94.5703 115.656 95.3185 115.125 95.8864C114.594 96.4543 113.867 96.7994 113.092 96.8519C112.703 96.868 112.315 96.8028 111.952 96.6603C111.59 96.5179 111.261 96.3014 110.987 96.0247C110.713 95.748 110.5 95.4172 110.361 95.0534C110.222 94.6897 110.16 94.3009 110.18 93.9119H108.5V96.7119H108.108V90.8319ZM113.092 96.4319C113.633 96.4714 114.172 96.3464 114.641 96.0735C115.109 95.8006 115.484 95.3925 115.716 94.9027C115.949 94.4129 116.027 93.8644 115.942 93.329C115.857 92.7937 115.612 92.2966 115.239 91.903C114.867 91.5094 114.384 91.2376 113.854 91.1234C113.324 91.0092 112.772 91.0579 112.27 91.263C111.768 91.4681 111.34 91.8202 111.042 92.2729C110.744 92.7257 110.59 93.258 110.6 93.7999C110.577 94.141 110.624 94.4833 110.739 94.8053C110.854 95.1273 111.034 95.4222 111.268 95.6717C111.501 95.9212 111.784 96.1199 112.098 96.2555C112.412 96.3911 112.75 96.4607 113.092 96.4599V96.4319Z" fill="white"/>
<path d="M132.062 7.938V132.062H7.938V7.938H132.062ZM140 0H0V140H140V0Z" fill="white"/>
</svg>
