<svg width="220" height="58" viewBox="0 0 220 58" fill="none" xmlns="http://www.w3.org/2000/svg">
<path d="M211.037 39.1259V9.79489L220 0.865723V39.1259H211.037Z" fill="#FA0000"/>
<path d="M181.595 9.79489V0.865723H220L211.037 9.79489H181.595Z" fill="#C00000"/>
<path d="M181.595 39.1259L211.037 9.79492V39.1259H181.595Z" fill="#C6C6C6"/>
<path d="M181.595 39.1259V9.79492H211.037L181.595 39.1259Z" fill="#008ECF"/>
<path d="M4.34606 51.2494C6.19265 51.2494 7.55097 52.1689 7.55097 54.1168C7.55097 56.1185 6.19265 57.0395 4.23677 57.0395H0V48.0014H6.73626V49.6254H1.95587V51.2494H4.34606ZM4.07355 52.8182H1.95587V55.4155H4.07355C5.0529 55.4155 5.5951 55.0901 5.5951 54.1168C5.64903 53.1421 4.99755 52.8182 4.07355 52.8182ZM16.8932 57.038H14.8294L14.124 55.0363H10.7559L9.9951 57.038H7.93135L11.4074 47.9462H13.4711L16.8946 57.038H16.8932ZM12.4392 50.1658L11.2441 53.5213H13.6343L12.4392 50.1658ZM25.3681 57.038H23.3583V53.1421H19.6637V57.038H17.6539V48.0014H19.6637V51.4106H23.3583V48.0014H25.3681V57.038ZM31.6147 51.5719L35.5265 57.038H33.0284L30.2564 52.9795L29.1166 54.1154V57.038H27.1608V48.0014H29.1166V51.736L32.7005 48.0014H35.1986L31.6147 51.5719ZM48.0196 57.038H46.0098V53.1421H42.3166V57.038H40.3068V48.0014H42.3166V51.4106H46.0098V48.0014H48.0196V57.038ZM56.6025 49.6254H51.7681V51.5733H56.2221V53.1421H51.7681V55.3603H56.7103V57.038H49.7583V48.0014H56.5485V49.6239H56.6025V49.6254ZM65.7289 57.038H63.7191V49.6791H60.0245V57.038H58.0147V48.0014H65.7289V57.038ZM71.4319 48.0014C73.3877 48.0014 74.7461 48.9209 74.7461 50.9226C74.7461 52.872 73.3338 53.7915 71.5412 53.7915H69.476V57.038H67.5215V48.0014H71.4319ZM69.476 52.2212H71.2686C72.1387 52.2212 72.8441 51.9524 72.8441 50.9226C72.8441 49.9493 72.1912 49.6239 71.3226 49.6239H69.5313V52.2226H69.476V52.2212ZM84.5226 52.4928C84.5226 55.3065 82.7299 57.2007 80.0686 57.2007C77.3534 57.2007 75.5608 55.3065 75.5608 52.4928C75.5608 49.6239 77.3534 47.7298 80.0686 47.7298C82.7299 47.7849 84.5226 49.6791 84.5226 52.4928ZM77.6245 52.4928C77.6245 54.4408 78.5471 55.5767 80.1226 55.6319C81.6441 55.6319 82.5681 54.4408 82.5681 52.4914C82.5681 50.5986 81.6441 49.4075 80.1226 49.4075C78.5471 49.4075 77.6245 50.5986 77.6245 52.4914V52.4928ZM91.4206 56.0096V56.9843H89.4662V56.0096C87.1314 55.9021 85.5559 54.6572 85.5559 52.3839C85.5559 50.2195 87.1314 48.9209 89.4662 48.8671V48.0014H91.4221V48.8671C93.8123 48.9209 95.3877 50.2195 95.3877 52.3839C95.3338 54.6572 93.7583 55.9558 91.4221 56.0096H91.4206ZM89.4662 50.3284C88.1632 50.3822 87.4564 51.1404 87.4564 52.4391C87.4564 53.6288 88.2172 54.5483 89.4662 54.6035V50.3284ZM91.4221 50.3284V54.5483C92.6711 54.4945 93.4319 53.6288 93.4319 52.3839C93.4319 51.139 92.725 50.3822 91.4221 50.3284ZM104.405 57.038H102.395V50.7613H102.341L98.9177 57.038H96.6907V48.0014H98.7005V54.2781H98.7559L102.177 48.0014H104.405V57.038ZM113.639 57.038H111.629V49.6791H109.185L109.076 53.5213C108.968 56.0648 108.098 57.1993 106.578 57.1993C106.198 57.1993 105.709 57.147 105.437 57.038V55.414C105.6 55.4692 105.871 55.5767 106.144 55.5767C106.686 55.5767 107.122 55.3065 107.175 53.4661L107.339 47.9462H113.641V57.038H113.639ZM119.344 57.038H115.323V48.0014H117.277V51.248H119.396C121.243 51.248 122.601 52.1675 122.601 54.1154C122.655 56.1185 121.297 57.038 119.342 57.038H119.344ZM119.18 52.8168H117.332V55.4155H119.234C120.212 55.4155 120.756 55.0901 120.756 54.1154C120.756 53.1421 120.103 52.8168 119.18 52.8168ZM131.566 57.038H129.556V53.1421H125.861V57.038H123.853V48.0014H125.863V51.4106H129.557V48.0014H131.567V57.038H131.566ZM136.834 57.038H133.303V48.0014H135.259V51.248H136.888C138.736 51.248 140.093 52.1675 140.093 54.1154C140.149 56.1185 138.79 57.038 136.834 57.038ZM136.671 52.8168H135.259V55.4155H136.671C137.65 55.4155 138.193 55.0901 138.193 54.1154C138.247 53.1421 137.595 52.8168 136.671 52.8168ZM143.136 48.0014V57.038H141.126V48.0014H143.136ZM149.383 52.2764L152.588 56.9843H150.198L148.188 53.8452L146.178 56.9843H143.896L147.101 52.2764L144.168 47.9476H146.503L148.296 50.8688L150.144 47.9462H152.315L149.383 52.275V52.2764ZM166.331 56.9319H164.266L163.561 54.9288H160.193L159.432 56.9319H157.368L160.844 47.8939H162.908L166.331 56.9319ZM161.822 50.1134L160.627 53.4675H163.017L161.822 50.1134ZM171.6 51.4644L175.512 56.9305H173.012L170.242 52.8705L169.101 54.0079V56.9305H167.146V47.8924H169.101V51.6271L172.686 47.8924H175.185L171.6 51.4644ZM183.061 49.5702H180.346V56.9305H178.336V49.5688H175.62V47.891H183.061V49.5688V49.5702ZM191.753 56.9305H189.744V50.6524H189.688L186.266 56.9305H184.039V47.8924H186.049V54.1706H186.103L189.525 47.8924H191.753V56.9305ZM197.837 47.8924C199.412 47.8924 200.717 48.5432 200.717 50.1658C200.717 51.0315 200.227 51.6808 199.466 52.0048C200.39 52.2764 201.096 52.9809 201.096 54.2243C201.096 56.0096 199.739 56.9305 198 56.9305H193.437V47.8924H197.837ZM195.447 51.5733H197.239C197.946 51.5733 198.761 51.4106 198.761 50.5449C198.761 49.6254 198 49.4627 197.239 49.4627H195.447V51.5719V51.5733ZM195.447 55.3603H197.456C198.326 55.3603 199.141 55.199 199.141 54.1154C199.141 53.0332 198.271 52.8705 197.349 52.8705H195.447V55.3603ZM211.037 52.4391C211.037 55.2528 209.244 57.147 206.583 57.147C203.866 57.147 202.074 55.2514 202.074 52.4391C202.074 49.5702 203.866 47.676 206.583 47.676C209.244 47.676 211.037 49.624 211.037 52.4391ZM204.139 52.3839C204.139 54.3319 205.061 55.4678 206.637 55.523C208.158 55.523 209.081 54.3319 209.081 52.3839C209.081 50.4897 208.158 49.3 206.637 49.3C205.061 49.3 204.139 50.5449 204.139 52.3839ZM216.686 47.8924C218.261 47.8924 219.566 48.5432 219.566 50.1658C219.566 51.0315 219.076 51.6808 218.315 52.0048C219.239 52.2764 219.946 52.9809 219.946 54.2243C219.946 56.0096 218.588 56.9305 216.849 56.9305H212.395V47.8924H216.686ZM214.351 51.5733H216.144C216.849 51.5733 217.664 51.4106 217.664 50.5449C217.664 49.6254 216.903 49.4627 216.144 49.4627H214.351V51.5719V51.5733ZM214.351 55.3603H216.361C217.229 55.3603 218.044 55.199 218.044 54.1154C218.044 53.0332 217.175 52.8705 216.251 52.8705H214.351V55.3603ZM31.7226 8.00966H20.1548V39.1259H11.6813V8.00966H0.161806V0.865756H31.7226V8.00966ZM52.7461 0.865756C61.0564 0.865756 66.8147 4.7079 66.8147 13.1504C66.8147 21.4826 60.8932 25.3799 53.1804 25.3799H44.5436V39.1259H36.1779V0.865756H52.7461ZM44.5422 18.7779H52.0392C55.8431 18.7779 58.6108 17.533 58.6108 13.3131C58.6108 9.25312 55.7863 7.79322 52.0932 7.79322H44.5422V18.7779ZM101.853 39.1259H92.9961L89.9559 30.5759H75.6686L72.5177 39.1259H63.8809L78.4932 0.812H87.1853L101.851 39.1259H101.853ZM82.8378 10.2278L77.7324 24.4604H87.9446L82.8378 10.2292V10.2278ZM122.168 40.0455C110.978 40.0455 103.589 32.0372 103.589 19.969C103.59 8.82166 110.707 0 122.496 0C131.73 0 138.465 5.7901 139.117 13.6908H130.86C129.992 9.52473 126.895 7.03498 122.333 7.03498C114.945 7.03498 112.065 13.6371 112.065 20.0227C112.065 27.9235 115.977 32.9567 122.223 32.9567C127.276 32.9567 130.318 29.9266 131.023 24.3529H139.389C138.521 33.7136 132.708 40.0455 122.17 40.0455H122.168ZM172.578 8.00966H161.007V39.1259H152.534V8.00966H140.963V0.865756H172.523V8.00966H172.578Z" fill="white"/>
</svg>
